<svg id="Wortbildmarke" xmlns="http://www.w3.org/2000/svg" xmlns:xlink="http://www.w3.org/1999/xlink" viewBox="0 0 203 38"><defs><style>.cls-1{fill:none;}.cls-2{clip-path:url(#clip-path);}.cls-3{fill:#212934;}.cls-4{fill:#e11e19;}</style><clipPath id="clip-path"><rect class="cls-1" width="203" height="38"/></clipPath></defs><g class="cls-2"><path class="cls-3" d="M62.267,9.984a3.047,3.047,0,0,0-1.526-.379q-2.407,0-2.408,3.039v2.211h3.36v1.96h-3.36V29.191H56.051V16.815H53.6v-1.96h2.449V12.532a4.824,4.824,0,0,1,1.3-3.563A4.391,4.391,0,0,1,60.6,7.66a4.5,4.5,0,0,1,1.666.252Z"/><path class="cls-3" d="M76.627,29.191h-2.3V26.952h-.056a4.807,4.807,0,0,1-4.41,2.575,4.717,4.717,0,0,1-3.353-1.133,3.93,3.93,0,0,1-1.211-3.01q0-4.019,4.732-4.676l4.3-.6q0-3.654-2.954-3.653A7.061,7.061,0,0,0,66.7,18.215V15.864a8.883,8.883,0,0,1,4.872-1.344q5.054,0,5.054,5.348Zm-2.3-7.252-3.458.477a5.608,5.608,0,0,0-2.408.791,2.28,2.28,0,0,0-.812,2.009,2.187,2.187,0,0,0,.749,1.715,2.9,2.9,0,0,0,2,.665,3.686,3.686,0,0,0,2.821-1.2,4.272,4.272,0,0,0,1.113-3.03Z"/><path class="cls-3" d="M84.336,11.216a1.45,1.45,0,0,1-1.049-.421,1.413,1.413,0,0,1-.434-1.064,1.47,1.47,0,0,1,1.483-1.5,1.481,1.481,0,0,1,1.071.427,1.5,1.5,0,0,1,0,2.121A1.471,1.471,0,0,1,84.336,11.216Zm1.121,17.975h-2.3V14.855h2.3Z"/><path class="cls-3" d="M99.788,17.18a2.807,2.807,0,0,0-1.736-.462A2.93,2.93,0,0,0,95.6,18.1a6.406,6.406,0,0,0-.987,3.78v7.307h-2.3V14.855h2.3V17.81h.056a5.01,5.01,0,0,1,1.5-2.359,3.414,3.414,0,0,1,2.254-.847,3.741,3.741,0,0,1,1.372.2Z"/><path class="cls-3" d="M104.8,29.191V9.116h5.712a6.246,6.246,0,0,1,4.13,1.274,4.118,4.118,0,0,1,1.526,3.318,4.892,4.892,0,0,1-.924,2.968,4.987,4.987,0,0,1-2.548,1.792v.055a5.1,5.1,0,0,1,3.247,1.534,4.712,4.712,0,0,1,1.219,3.367A5.251,5.251,0,0,1,115.31,27.6a6.882,6.882,0,0,1-4.662,1.595Zm2.352-17.947v6.482h2.408a4.567,4.567,0,0,0,3.038-.932,3.241,3.241,0,0,0,1.106-2.625q0-2.925-3.85-2.925Zm0,8.595v7.224h3.192a4.785,4.785,0,0,0,3.213-.979,3.359,3.359,0,0,0,1.141-2.688q0-3.557-4.844-3.557Z"/><path class="cls-3" d="M130.607,17.18a2.8,2.8,0,0,0-1.736-.462,2.931,2.931,0,0,0-2.457,1.386,6.413,6.413,0,0,0-.986,3.78v7.307h-2.3V14.855h2.3V17.81h.055a5.025,5.025,0,0,1,1.5-2.359,3.414,3.414,0,0,1,2.254-.847,3.738,3.738,0,0,1,1.372.2Z"/><path class="cls-3" d="M136.482,11.216a1.448,1.448,0,0,1-1.049-.421A1.413,1.413,0,0,1,135,9.731a1.472,1.472,0,0,1,1.484-1.5,1.484,1.484,0,0,1,1.072.427,1.5,1.5,0,0,1,0,2.121A1.474,1.474,0,0,1,136.482,11.216ZM137.6,29.191h-2.3V14.855h2.3Z"/><path class="cls-3" d="M155.98,22.6H145.858a5.369,5.369,0,0,0,1.288,3.7,4.443,4.443,0,0,0,3.388,1.3,7.048,7.048,0,0,0,4.452-1.6v2.155a8.314,8.314,0,0,1-5,1.372,6.054,6.054,0,0,1-4.773-1.953,7.993,7.993,0,0,1-1.736-5.494,7.84,7.84,0,0,1,1.9-5.454,6.084,6.084,0,0,1,4.711-2.106,5.387,5.387,0,0,1,4.353,1.819,7.589,7.589,0,0,1,1.54,5.055Zm-2.351-1.947a4.672,4.672,0,0,0-.959-3.093,3.265,3.265,0,0,0-2.625-1.106,3.707,3.707,0,0,0-2.758,1.162,5.256,5.256,0,0,0-1.4,3.037Z"/><path class="cls-3" d="M168.744,9.984a3.049,3.049,0,0,0-1.526-.379q-2.409,0-2.408,3.039v2.211h3.36v1.96h-3.36V29.191h-2.282V16.815h-2.45v-1.96h2.45V12.532a4.828,4.828,0,0,1,1.3-3.563,4.393,4.393,0,0,1,3.248-1.309,4.5,4.5,0,0,1,1.666.252Z"/><path class="cls-3" d="M179.491,29.052a4.42,4.42,0,0,1-2.141.448q-3.766,0-3.766-4.2V16.815h-2.465v-1.96h2.465v-3.5l2.3-.741v4.241h3.611v1.96H175.88v8.079a3.355,3.355,0,0,0,.489,2.058,1.957,1.957,0,0,0,1.624.615,2.415,2.415,0,0,0,1.5-.475Z"/><path class="cls-4" d="M197.974,18.427c1.578,0,3.978-2.56,3.978-3.932V1.049H189.623V18.427Z"/><path class="cls-4" d="M24.122,26.961a2.949,2.949,0,0,1-2.637,2.532H19.36V8.438h4.751Z"/><path class="cls-4" d="M29.789,8.258h6.145a7.8,7.8,0,0,1,5.18,1.46,4.942,4.942,0,0,1,1.727,3.992,4.948,4.948,0,0,1-.766,2.875A4.632,4.632,0,0,1,40,18.251v.061q3.57.988,3.575,5a7.011,7.011,0,0,1-.438,2.576,4.792,4.792,0,0,1-1.355,1.937,6.133,6.133,0,0,1-2.337,1.255,12.113,12.113,0,0,1-3.426.411H27.335V10.761a3.229,3.229,0,0,1,2.459-2.5Zm9.055,14.7a2.482,2.482,0,0,0-.65-1.926,3.329,3.329,0,0,0-2.221-.555H31.9V25.6h4.214a3.2,3.2,0,0,0,2.093-.556,2.669,2.669,0,0,0,.649-2.07Zm-.506-8.4a2.217,2.217,0,0,0-.594-1.766,3.016,3.016,0,0,0-1.954-.494H31.954v4.6h3.958a2.7,2.7,0,0,0,1.86-.555,2.275,2.275,0,0,0,.555-1.8Z"/><path class="cls-4" d="M12.973,12.635c-5.751-.844-7.14,1.081-7.14,6.362,0,5.07,1.41,6.973,7.61,6.324,1.946-.205,2.417.422,2.79,3.465a17.428,17.428,0,0,1-5.746.806c-3.136-.1-5.709-.871-7.217-2.617S1,22.516,1,18.867C1,11.462,4.33,8.408,10.784,8.408a14.061,14.061,0,0,1,5.281.951C15.535,12.705,14.962,12.927,12.973,12.635Z"/></g></svg>