<?xml version="1.0" standalone="no"?>
<!DOCTYPE svg PUBLIC "-//W3C//DTD SVG 20010904//EN"
 "http://www.w3.org/TR/2001/REC-SVG-20010904/DTD/svg10.dtd">
<svg version="1.0" xmlns="http://www.w3.org/2000/svg"
 width="1136.000000pt" height="1136.000000pt" viewBox="0 0 1136.000000 1136.000000"
 preserveAspectRatio="xMidYMid meet">
<metadata>
Created by potrace 1.11, written by Peter Selinger 2001-2013
</metadata>
<g transform="translate(0.000000,1136.000000) scale(0.100000,-0.100000)"
fill="#000000" stroke="none">
<path d="M9026 8190 c-10 -33 -3 -3300 6 -3306 5 -4 49 -6 96 -5 48 1 94 2
102 2 8 -1 62 -1 120 0 58 0 112 0 120 0 8 -1 62 -1 120 0 58 0 112 0 120 0 8
-1 62 -1 120 0 58 0 112 0 120 0 8 -1 62 -1 120 0 58 0 112 0 120 0 8 -1 62
-1 120 0 123 0 105 0 203 -3 42 -2 77 0 77 3 0 3 14 4 30 1 67 -10 259 69 328
135 7 7 17 13 22 13 5 0 58 48 118 108 115 113 177 194 236 305 l36 68 -3
1347 -2 1347 -1162 0 c-1042 1 -1163 -1 -1167 -15z"/>
<path d="M1868 7284 c-3 -2 -40 -6 -84 -8 -99 -6 -211 -15 -244 -22 -14 -2
-38 -6 -55 -8 -133 -18 -346 -74 -457 -120 -18 -8 -37 -15 -43 -17 -11 -3
-155 -77 -195 -100 -13 -8 -33 -22 -44 -31 -11 -10 -28 -20 -38 -24 -10 -3
-18 -10 -18 -15 0 -5 -8 -13 -17 -16 -35 -14 -201 -176 -231 -225 -9 -16 -19
-28 -23 -28 -10 0 -111 -163 -152 -245 -99 -200 -174 -464 -202 -710 -3 -22
-7 -60 -10 -85 -14 -124 -17 -216 -17 -445 1 -137 3 -272 5 -300 9 -103 18
-191 23 -220 3 -16 7 -46 9 -65 3 -34 30 -182 40 -227 3 -13 7 -32 10 -44 2
-11 7 -29 10 -39 3 -10 8 -27 10 -37 2 -10 19 -63 38 -118 157 -458 417 -743
817 -898 36 -13 74 -28 85 -32 11 -5 25 -9 30 -10 6 -2 35 -10 65 -19 30 -9
58 -16 62 -17 4 0 22 -5 40 -10 18 -5 50 -12 71 -15 21 -3 49 -9 63 -14 15 -6
250 -10 577 -10 500 0 599 4 707 26 14 3 39 7 55 9 54 7 266 65 284 78 10 6
17 19 16 27 -1 8 -6 40 -10 70 -15 118 -33 215 -46 257 -6 17 -12 44 -15 60
-8 46 -70 165 -104 200 -75 77 -175 97 -385 80 -282 -23 -458 -27 -625 -13
-51 4 -96 9 -100 11 -3 2 -23 6 -45 9 -123 19 -368 117 -382 152 -3 8 -10 14
-17 14 -10 0 -96 86 -136 136 -66 83 -141 288 -164 449 -4 23 -9 52 -11 65
-26 130 -25 846 0 890 2 3 6 30 10 60 4 30 8 57 10 60 2 3 6 26 10 50 19 133
115 340 200 432 122 132 295 212 510 235 83 9 366 9 448 -1 122 -13 153 -17
177 -22 96 -17 276 -25 330 -13 119 27 195 128 249 329 31 112 57 243 64 314
2 14 -11 24 -48 39 -27 10 -59 23 -70 27 -11 5 -31 11 -45 15 -14 3 -65 17
-115 30 -90 24 -270 59 -355 69 -108 13 -131 15 -230 21 -135 8 -229 9 -236 2
-4 -3 -16 -2 -29 3 -13 5 -25 7 -27 4z"/>
<path d="M3641 7031 c-2 -209 -2 -227 2 -271 2 -14 -1 -33 -6 -42 -4 -10 -4
-18 0 -18 4 0 7 -188 5 -417 -3 -421 -3 -437 1 -483 2 -14 -1 -33 -6 -42 -4
-10 -4 -18 0 -18 9 0 9 -1201 0 -1224 -3 -8 -3 -17 0 -20 5 -5 8 -597 3 -621
-1 -5 -1 -14 0 -20 1 -5 1 -59 1 -120 -2 -113 -1 -132 2 -175 2 -14 -1 -33 -6
-42 -4 -10 -4 -18 0 -18 4 0 7 -84 6 -188 l-1 -187 231 1 c260 1 304 9 408 71
87 52 240 208 222 227 -3 3 -2 6 4 6 9 0 31 47 52 110 3 8 7 843 8 1856 l3
1841 -463 0 -464 0 -2 -206z"/>
<path d="M5640 7232 c-155 -19 -374 -214 -441 -391 l-21 -56 0 -1822 c0 -1002
2 -1825 5 -1830 6 -10 1809 -9 1922 1 44 4 94 9 110 11 17 2 57 6 89 10 33 4
71 11 85 17 14 5 27 9 29 8 1 -1 15 1 30 4 15 4 36 8 47 10 80 16 264 97 366
162 82 52 98 64 172 139 152 154 247 359 284 615 10 72 10 339 -1 415 -21 150
-104 359 -179 449 -56 69 -149 156 -166 156 -5 0 -14 7 -22 16 -20 24 -184
106 -239 119 -27 6 -70 24 -70 30 0 2 26 18 59 34 174 88 332 251 404 418 78
177 100 403 63 653 -5 35 -37 162 -46 180 -86 183 -114 223 -220 328 -102 100
-225 175 -372 226 -74 26 -183 55 -228 62 -14 2 -43 6 -65 9 -22 3 -53 8 -70
10 -87 14 -269 18 -855 19 -355 0 -656 0 -670 -2z m1340 -786 c14 -3 39 -9 55
-12 17 -2 57 -18 90 -33 55 -26 78 -43 113 -86 19 -22 54 -104 58 -135 16
-119 18 -155 13 -228 -10 -121 -41 -211 -94 -266 -47 -49 -74 -65 -150 -91
-77 -26 -130 -29 -575 -29 l-415 -1 0 446 0 445 440 -2 c242 -1 451 -5 465 -8z
m80 -1585 c36 -6 74 -15 85 -20 11 -5 39 -17 63 -27 91 -38 165 -140 191 -264
12 -56 16 -249 6 -292 -2 -13 -7 -34 -9 -48 -14 -86 -49 -161 -96 -207 -35
-34 -122 -83 -149 -83 -9 0 -22 -5 -29 -12 -7 -7 -12 -9 -12 -6 0 3 -17 1 -37
-4 -22 -6 -241 -11 -520 -13 l-483 -2 -1 36 c-1 42 -1 919 0 941 1 14 55 15
464 14 307 -1 484 -5 527 -13z"/>
</g>
</svg>
